<svg id="Layer_1" enable-background="new 0 0 512 512" height="512" viewBox="0 0 512 512" width="512" xmlns="http://www.w3.org/2000/svg"><g><path d="m256 512c-25.694 0-48.003-14.776-58.876-36.276-20.165 13.181-46.871 14.826-69.123 1.981-22.252-12.851-34.185-36.799-32.851-60.853-24.052 1.335-48.005-10.6-60.853-32.852-15.561-26.952-7.947-54.016 1.945-69.139-21.481-10.879-36.242-33.179-36.242-58.861s14.761-47.982 36.242-58.861c-9.853-15.064-17.521-42.161-1.945-69.139 12.847-22.25 36.807-34.188 60.853-32.852-1.333-24.054 10.598-48.001 32.849-60.852 22.253-12.843 48.959-11.203 69.126 1.979 10.873-21.5 33.181-36.275 58.875-36.275s48.003 14.776 58.876 36.276c20.166-13.181 46.871-14.826 69.123-1.981 22.252 12.851 34.185 36.799 32.851 60.853 24.055-1.329 48.005 10.6 60.853 32.852 15.561 26.952 7.947 54.016-1.945 69.139 21.481 10.879 36.242 33.179 36.242 58.861s-14.761 47.982-36.242 58.861c9.853 15.064 17.521 42.161 1.945 69.139-19.685 34.092-55.179 33.166-60.853 32.852 1.333 24.054-10.598 48.001-32.849 60.852-22.252 12.844-48.959 11.204-69.126-1.979-10.873 21.5-33.181 36.275-58.875 36.275z" fill="#ff7d47"/><path d="m256 512v-512c25.694 0 48.003 14.776 58.876 36.276 20.166-13.181 46.871-14.826 69.123-1.981 22.252 12.851 34.185 36.799 32.851 60.853 24.055-1.329 48.005 10.6 60.853 32.852 15.561 26.952 7.947 54.016-1.945 69.139 21.481 10.879 36.242 33.179 36.242 58.861s-14.761 47.982-36.242 58.861c9.853 15.064 17.521 42.161 1.945 69.139-19.685 34.092-55.179 33.166-60.853 32.852 1.333 24.054-10.598 48.001-32.849 60.852-22.252 12.844-48.959 11.204-69.126-1.979-10.873 21.5-33.181 36.275-58.875 36.275z" fill="#ff405c"/><path d="m208.954 431.58c6.558 1.757 11.117 7.7 11.117 14.489 0 19.812 16.118 35.931 35.929 35.931s35.929-16.119 35.929-35.931c0-6.789 4.56-12.731 11.117-14.489 6.559-1.759 13.478 1.109 16.873 6.988 9.907 17.157 31.925 23.057 49.083 13.154 17.154-9.907 23.054-31.923 13.149-49.077-3.395-5.879-2.417-13.305 2.383-18.106 4.799-4.801 12.225-5.78 18.106-2.386 17.157 9.903 39.176 4.002 49.083-13.155 4.794-8.303 6.065-17.984 3.58-27.261-2.486-9.276-8.427-17.024-16.729-21.816-5.88-3.394-8.748-10.314-6.991-16.873s7.7-11.119 14.489-11.119c19.81.002 35.928-16.117 35.928-35.929s-16.118-35.931-35.929-35.931c-6.79 0-12.732-4.561-14.489-11.119s1.11-13.479 6.991-16.873c8.302-4.792 14.243-12.54 16.729-21.816 2.485-9.277 1.214-18.958-3.58-27.261-9.906-17.157-31.924-23.058-49.083-13.155-5.88 3.394-13.306 2.416-18.106-2.386-4.8-4.801-5.777-12.227-2.383-18.106 9.905-17.154 4.004-39.17-13.152-49.079-17.155-9.9-39.172-4-49.08 13.156-3.395 5.879-10.312 8.745-16.873 6.988-6.558-1.757-11.117-7.7-11.117-14.489.001-19.81-16.117-35.929-35.928-35.929s-35.929 16.119-35.929 35.931c0 6.789-4.56 12.731-11.117 14.489-6.561 1.757-13.478-1.109-16.873-6.988-9.907-17.157-31.926-23.057-49.083-13.154-17.154 9.907-23.054 31.923-13.149 49.077 3.395 5.879 2.417 13.305-2.383 18.106-4.799 4.801-12.225 5.78-18.106 2.386-17.159-9.904-39.177-4.002-49.083 13.155-4.794 8.303-6.065 17.984-3.58 27.261 2.486 9.276 8.427 17.024 16.729 21.816 5.88 3.394 8.748 10.314 6.991 16.873s-7.7 11.119-14.489 11.119c-19.81-.002-35.928 16.117-35.928 35.929s16.118 35.931 35.929 35.931c6.79 0 12.732 4.561 14.489 11.119s-1.11 13.479-6.991 16.873c-8.302 4.792-14.243 12.54-16.729 21.816-2.485 9.277-1.214 18.958 3.58 27.261 9.906 17.157 31.925 23.058 49.083 13.155 5.881-3.393 13.306-2.415 18.106 2.386s5.777 12.227 2.383 18.106c-9.905 17.154-4.004 39.17 13.152 49.079 17.156 9.901 39.173 4.001 49.08-13.156 1.489-2.582 7.327-9.546 16.872-6.99z" fill="#ff405c"/><path d="m256 482c19.811 0 35.929-16.119 35.929-35.931 0-6.789 4.56-12.731 11.117-14.489 6.559-1.759 13.478 1.109 16.873 6.988 9.907 17.157 31.925 23.057 49.083 13.154 17.154-9.907 23.054-31.923 13.149-49.077-3.395-5.879-2.417-13.305 2.383-18.106 4.799-4.801 12.225-5.78 18.106-2.386 17.157 9.903 39.176 4.002 49.083-13.155 4.794-8.303 6.065-17.984 3.58-27.261-2.486-9.276-8.427-17.024-16.729-21.816-5.88-3.394-8.748-10.314-6.991-16.873s7.7-11.119 14.489-11.119c19.81.002 35.928-16.117 35.928-35.929s-16.118-35.931-35.929-35.931c-6.79 0-12.732-4.561-14.489-11.119s1.11-13.479 6.991-16.873c8.302-4.792 14.243-12.54 16.729-21.816 2.485-9.277 1.214-18.958-3.58-27.261-9.906-17.157-31.924-23.058-49.083-13.155-5.88 3.394-13.306 2.416-18.106-2.386-4.8-4.801-5.777-12.227-2.383-18.106 9.905-17.154 4.004-39.17-13.152-49.079-17.155-9.9-39.172-4-49.08 13.156-3.395 5.879-10.312 8.745-16.873 6.988-6.558-1.757-11.117-7.7-11.117-14.489.001-19.81-16.117-35.929-35.928-35.929z" fill="#d01273"/><path d="m320.267 273.133c-25.989 0-47.133 21.144-47.133 47.133s21.144 47.133 47.133 47.133 47.133-21.144 47.133-47.133-21.144-47.133-47.133-47.133zm0 64.267c-9.447 0-17.133-7.686-17.133-17.133s7.686-17.133 17.133-17.133 17.133 7.686 17.133 17.133-7.686 17.133-17.133 17.133z" fill="#e6e6e6"/><path d="m191.733 144.6c-25.989 0-47.133 21.144-47.133 47.133s21.144 47.133 47.133 47.133 47.133-21.144 47.133-47.133-21.143-47.133-47.133-47.133zm0 64.267c-9.447 0-17.133-7.686-17.133-17.133s7.686-17.133 17.133-17.133 17.133 7.686 17.133 17.133-7.685 17.133-17.133 17.133z" fill="#f5f5f5"/><path d="m182.363 348.046c-6.469-5.175-7.518-14.614-2.342-21.083l128.533-160.667c5.175-6.468 14.613-7.518 21.083-2.342 6.469 5.175 7.518 14.614 2.342 21.083l-128.533 160.667c-4.918 6.148-14.308 7.763-21.083 2.342z" fill="#f5f5f5"/><path d="m256 280.012 75.979-94.975c5.175-6.469 4.126-15.909-2.342-21.083-6.47-5.176-15.909-4.126-21.083 2.342l-52.554 65.692z" fill="#e6e6e6"/></g></svg>