<svg width="32" height="26" viewBox="0 0 32 26" fill="none" xmlns="http://www.w3.org/2000/svg">
<path d="M16 26C24.3754 26 31.165 20.1797 31.165 13C31.165 5.8203 24.3754 0 16 0C7.62462 0 0.835022 5.8203 0.835022 13C0.835022 20.1797 7.62462 26 16 26Z" fill="#14A085"/>
<path d="M25.7893 5.57207C24.6334 4.45352 23.229 3.54372 21.6581 2.89586C15.6013 0.401432 8.32501 2.24727 4.82712 7.16552C1.32923 12.0838 2.74801 18.474 8.10895 21.9468C13.4699 25.4197 21.0285 24.8452 25.5929 20.6178C30.1573 16.3904 30.2422 9.88594 25.7893 5.57207Z" fill="#26B99A"/>
<path d="M21.6581 2.89589C15.2993 4.16002 6.97948 7.71485 4.02491 17.5007C1.83108 13.2077 2.98445 8.19792 6.91636 4.94129C10.8483 1.68467 16.7286 0.868775 21.6581 2.89589Z" fill="#81CCB8"/>
<path d="M23.1971 18.3036L17.4449 6.64839C17.1993 6.15079 16.6303 5.82745 16 5.82745C15.3697 5.82745 14.8007 6.15079 14.5551 6.64839L8.80291 18.3036C8.58451 18.7461 8.65809 19.2548 8.99593 19.6382C9.33377 20.0216 9.88455 20.2214 10.4408 20.1623C10.997 20.1031 11.4742 19.7941 11.6926 19.3516L12.8363 17.0345H19.1637L20.3074 19.3516C20.5258 19.7941 21.003 20.1031 21.5592 20.1623C22.1155 20.2214 22.6662 20.0216 23.0041 19.6382C23.3419 19.2548 23.4155 18.7461 23.1971 18.3036ZM14.1635 14.3448L16 10.6241L17.8365 14.3448H14.1635Z" fill="white"/>
<path d="M16 24.6552C8.49104 24.6552 2.40381 19.437 2.40381 13C2.40381 6.56305 8.49104 1.34485 16 1.34485C23.509 1.34485 29.5962 6.56305 29.5962 13C29.5879 19.434 23.5055 24.648 16 24.6552ZM16 2.2414C9.06865 2.2414 3.44967 7.0582 3.44967 13C3.44967 18.9418 9.06865 23.7586 16 23.7586C22.9314 23.7586 28.5504 18.9418 28.5504 13C28.5423 7.06107 22.928 2.24832 16 2.2414Z" fill="white"/>
</svg>
